<?xml version="1.0" encoding="iso-8859-1"?>
<!-- Uploaded to: SVG Repo, www.svgrepo.com, Generator: SVG Repo Mixer Tools -->
<svg height="800px" width="800px" version="1.1" id="Capa_1" xmlns="http://www.w3.org/2000/svg" xmlns:xlink="http://www.w3.org/1999/xlink" 
	 viewBox="0 0 310.048 310.048" xml:space="preserve">
<g>
	<g>
		<path style="fill:#999999;" d="M114.291,310.048h81.472c38.231,0,69.337-31.106,69.337-69.337V69.337
			C265.1,31.106,237.241,0,203.002,0h-56.67c-0.12,0-0.223,0.054-0.343,0.06c-0.294,0.016-0.577,0.087-0.859,0.158
			c-0.37,0.087-0.729,0.185-1.072,0.348c-0.267,0.125-0.511,0.283-0.756,0.446c-0.174,0.12-0.375,0.179-0.538,0.321L46.819,84.436
			c-0.114,0.098-0.158,0.245-0.261,0.348c-0.305,0.31-0.549,0.658-0.767,1.023c-0.152,0.261-0.315,0.511-0.424,0.794
			c-0.163,0.419-0.228,0.859-0.283,1.311c-0.027,0.218-0.136,0.413-0.136,0.631v152.169
			C44.954,278.942,76.054,310.048,114.291,310.048z M136.009,21.577l-21.163,73.27C101.656,78.97,85.1,76.103,71.747,77.24
			L136.009,21.577z M55.832,92.018c9.35-3.911,38.781-13.005,56.305,18.079c0.974,1.724,2.79,2.768,4.737,2.768
			c0.212,0,0.424-0.011,0.631-0.038c2.176-0.25,3.987-1.789,4.596-3.894l28.327-98.055h52.574c28.24,0,51.22,26.227,51.22,58.459
			v171.374c0,32.232-26.227,58.459-58.459,58.459h-81.472c-32.232,0-58.459-26.227-58.459-58.459V92.018z"/>
	</g>
</g>
</svg>